<svg xmlns="http://www.w3.org/2000/svg" viewBox="0 0 16 16" shape-rendering="crispEdges">
  <!-- Leaf -->
  <rect x="6" y="1" width="2" height="1" fill="#44AA44"/>
  <rect x="7" y="2" width="1" height="1" fill="#336633"/>
  <!-- Top arc outline -->
  <rect x="5" y="3" width="5" height="1" fill="#882222"/>
  <!-- Row 4 -->
  <rect x="4" y="4" width="1" height="1" fill="#882222"/>
  <rect x="5" y="4" width="5" height="1" fill="#CC3333"/>
  <rect x="10" y="4" width="1" height="1" fill="#882222"/>
  <!-- Row 5: highlight -->
  <rect x="3" y="5" width="1" height="1" fill="#882222"/>
  <rect x="4" y="5" width="3" height="1" fill="#FF7777"/>
  <rect x="7" y="5" width="4" height="1" fill="#CC3333"/>
  <rect x="11" y="5" width="1" height="1" fill="#882222"/>
  <!-- Row 6 -->
  <rect x="3" y="6" width="1" height="1" fill="#882222"/>
  <rect x="4" y="6" width="2" height="1" fill="#FF7777"/>
  <rect x="6" y="6" width="5" height="1" fill="#CC3333"/>
  <rect x="11" y="6" width="1" height="1" fill="#882222"/>
  <!-- Row 7: eyes -->
  <rect x="3" y="7" width="1" height="1" fill="#882222"/>
  <rect x="4" y="7" width="1" height="1" fill="#CC3333"/>
  <rect x="5" y="7" width="1" height="1" fill="#110000"/>
  <rect x="6" y="7" width="3" height="1" fill="#CC3333"/>
  <rect x="9" y="7" width="1" height="1" fill="#110000"/>
  <rect x="10" y="7" width="1" height="1" fill="#CC3333"/>
  <rect x="11" y="7" width="1" height="1" fill="#882222"/>
  <!-- Row 8 -->
  <rect x="3" y="8" width="1" height="1" fill="#882222"/>
  <rect x="4" y="8" width="7" height="1" fill="#CC3333"/>
  <rect x="11" y="8" width="1" height="1" fill="#882222"/>
  <!-- Row 9 -->
  <rect x="3" y="9" width="1" height="1" fill="#882222"/>
  <rect x="4" y="9" width="7" height="1" fill="#CC3333"/>
  <rect x="11" y="9" width="1" height="1" fill="#882222"/>
  <!-- Row 10 -->
  <rect x="4" y="10" width="1" height="1" fill="#882222"/>
  <rect x="5" y="10" width="5" height="1" fill="#CC3333"/>
  <rect x="10" y="10" width="1" height="1" fill="#882222"/>
  <!-- Bottom arc outline -->
  <rect x="5" y="11" width="5" height="1" fill="#882222"/>
</svg>
