<svg xmlns="http://www.w3.org/2000/svg" viewBox="0 0 16 16" width="100%" height="100%" shape-rendering="crispEdges">
  
  <g fill="#ca6a00">
    <rect x="3" y="3" width="1" height="1"/>
    <rect x="12" y="3" width="1" height="1"/>
    <rect x="2" y="4" width="12" height="1"/>
    <rect x="2" y="5" width="12" height="1"/>
    <rect x="2" y="6" width="12" height="1"/>
    <rect x="2" y="7" width="12" height="1"/>
    <rect x="2" y="8" width="12" height="1"/>
    <rect x="2" y="9" width="12" height="1"/>
    <rect x="3" y="10" width="10" height="1"/>
    <rect x="4" y="11" width="8" height="1"/>
    <rect x="14" y="6" width="1" height="4"/>
    <rect x="4" y="12" width="1" height="2"/>
    <rect x="11" y="12" width="1" height="2"/>
  </g>
  
  <g fill="#ec8c00">
    <rect x="3" y="4" width="4" height="1"/>
    <rect x="2" y="5" width="2" height="1"/>
    <rect x="5" y="10" width="6" height="1"/>
    <rect x="6" y="11" width="4" height="1"/>
  </g>

  <g fill="#ff96b8">
    <rect x="3" y="4" width="1" height="1"/>
    <rect x="12" y="4" width="1" height="1"/>
  </g>

  <g fill="#000000">
    <rect x="4" y="7" width="2" height="2"/>
    <rect x="10" y="7" width="2" height="2"/>
  </g>
  
  <g fill="#ffffff">
    <rect x="5" y="7" width="1" height="1"/>
    <rect x="11" y="7" width="1" height="1"/>
  </g>
  
  <g fill="#ff96b8">
    <rect x="7" y="8" width="2" height="1"/>
  </g>

  <g fill="#380b1b">
    <rect x="3" y="2" width="1" height="1"/>
    <rect x="12" y="2" width="1" height="1"/>
    <rect x="2" y="3" width="1" height="1"/>
    <rect x="4" y="3" width="8" height="1"/>
    <rect x="13" y="3" width="1" height="1"/>
    
    <rect x="1" y="4" width="1" height="6"/>
    
    <rect x="14" y="4" width="1" height="2"/>
    <rect x="15" y="6" width="1" height="4"/>
    <rect x="14" y="10" width="1" height="1"/>
    <rect x="13" y="10" width="1" height="1"/>
    
    <rect x="2" y="10" width="1" height="1"/>
    <rect x="3" y="11" width="1" height="1"/>
    <rect x="12" y="11" width="1" height="1"/>
    
    <rect x="6" y="12" width="4" height="1"/>
    
    <rect x="3" y="12" width="1" height="3"/>
    <rect x="5" y="12" width="1" height="3"/>
    <rect x="4" y="14" width="1" height="1"/>
    
    <rect x="10" y="12" width="1" height="3"/>
    <rect x="12" y="12" width="1" height="3"/>
    <rect x="11" y="14" width="1" height="1"/>
  </g>

</svg>
