<svg xmlns="http://www.w3.org/2000/svg" viewBox="0 0 16 16" shape-rendering="crispEdges">
  <!-- Gold coin -->
  <rect x="4" y="2" width="8" height="1" fill="#FFCC00"/>
  <rect x="3" y="3" width="1" height="1" fill="#CC9900"/>
  <rect x="4" y="3" width="8" height="1" fill="#FFEE00"/>
  <rect x="12" y="3" width="1" height="1" fill="#CC9900"/>
  <rect x="2" y="4" width="1" height="1" fill="#CC9900"/>
  <rect x="3" y="4" width="10" height="1" fill="#FFEE00"/>
  <rect x="13" y="4" width="1" height="1" fill="#CC9900"/>
  <rect x="2" y="5" width="1" height="1" fill="#FFEE00"/>
  <rect x="3" y="5" width="10" height="1" fill="#FFFF00"/>
  <rect x="13" y="5" width="1" height="1" fill="#FFEE00"/>
  <rect x="3" y="6" width="10" height="1" fill="#FFFF00"/>
  <rect x="3" y="7" width="10" height="1" fill="#FFEE00"/>
  <rect x="2" y="8" width="1" height="1" fill="#FFEE00"/>
  <rect x="3" y="8" width="10" height="1" fill="#FFEE00"/>
  <rect x="13" y="8" width="1" height="1" fill="#FFEE00"/>
  <rect x="3" y="9" width="10" height="1" fill="#FFEE00"/>
  <rect x="4" y="10" width="8" height="1" fill="#FFCC00"/>
</svg>
