<svg xmlns="http://www.w3.org/2000/svg" viewBox="0 0 16 16" shape-rendering="crispEdges">
  <!-- Flame crest top -->
  <rect x="7" y="0" width="1" height="1" fill="#FFEE00"/>
  <rect x="5" y="1" width="1" height="2" fill="#FFCC00"/>
  <rect x="7" y="1" width="2" height="2" fill="#FFEE00"/>
  <rect x="10" y="1" width="1" height="2" fill="#FF8800"/>
  <rect x="4" y="2" width="2" height="2" fill="#FFAA00"/>
  <rect x="9" y="2" width="2" height="2" fill="#FF8800"/>
  <!-- Flame base / head top row 4 -->
  <rect x="4" y="4" width="7" height="1" fill="#AA2200"/>
  <!-- Row 5: highlight -->
  <rect x="3" y="5" width="1" height="1" fill="#AA2200"/>
  <rect x="4" y="5" width="3" height="1" fill="#FF9966"/>
  <rect x="7" y="5" width="4" height="1" fill="#FF4400"/>
  <rect x="11" y="5" width="1" height="1" fill="#AA2200"/>
  <!-- Row 6 -->
  <rect x="3" y="6" width="1" height="1" fill="#AA2200"/>
  <rect x="4" y="6" width="2" height="1" fill="#FF9966"/>
  <rect x="6" y="6" width="5" height="1" fill="#FF4400"/>
  <rect x="11" y="6" width="1" height="1" fill="#AA2200"/>
  <!-- Row 7: eyes -->
  <rect x="3" y="7" width="1" height="1" fill="#AA2200"/>
  <rect x="4" y="7" width="1" height="1" fill="#FF4400"/>
  <rect x="5" y="7" width="1" height="1" fill="#110000"/>
  <rect x="6" y="7" width="3" height="1" fill="#FF4400"/>
  <rect x="9" y="7" width="1" height="1" fill="#110000"/>
  <rect x="10" y="7" width="1" height="1" fill="#FF4400"/>
  <rect x="11" y="7" width="1" height="1" fill="#AA2200"/>
  <!-- Row 8: ember detail -->
  <rect x="3" y="8" width="1" height="1" fill="#AA2200"/>
  <rect x="4" y="8" width="2" height="1" fill="#FF4400"/>
  <rect x="6" y="8" width="1" height="1" fill="#FFAA44"/>
  <rect x="7" y="8" width="2" height="1" fill="#FF4400"/>
  <rect x="9" y="8" width="1" height="1" fill="#FFAA44"/>
  <rect x="10" y="8" width="1" height="1" fill="#FF4400"/>
  <rect x="11" y="8" width="1" height="1" fill="#AA2200"/>
  <!-- Row 9 -->
  <rect x="3" y="9" width="1" height="1" fill="#AA2200"/>
  <rect x="4" y="9" width="7" height="1" fill="#FF4400"/>
  <rect x="11" y="9" width="1" height="1" fill="#AA2200"/>
  <!-- Row 10 -->
  <rect x="4" y="10" width="1" height="1" fill="#AA2200"/>
  <rect x="5" y="10" width="5" height="1" fill="#FF4400"/>
  <rect x="10" y="10" width="1" height="1" fill="#AA2200"/>
  <!-- Row 11 -->
  <rect x="5" y="11" width="5" height="1" fill="#AA2200"/>
  <!-- Flame tail -->
  <rect x="5" y="12" width="1" height="1" fill="#FF8800"/>
  <rect x="6" y="12" width="3" height="1" fill="#FFAA00"/>
  <rect x="9" y="12" width="1" height="1" fill="#FF8800"/>
  <rect x="4" y="13" width="2" height="1" fill="#FF8800"/>
  <rect x="6" y="13" width="3" height="1" fill="#FFEE00"/>
  <rect x="9" y="13" width="2" height="1" fill="#FF4400"/>
  <rect x="5" y="14" width="1" height="1" fill="#FF4400"/>
  <rect x="8" y="14" width="1" height="1" fill="#FF8800"/>
</svg>
