<svg xmlns="http://www.w3.org/2000/svg" viewBox="0 0 16 16" shape-rendering="crispEdges">
  <!-- Psychic star gem on forehead -->
  <rect x="7" y="1" width="1" height="1" fill="#FFAAFF"/>
  <rect x="6" y="2" width="3" height="1" fill="#FFAAFF"/>
  <rect x="7" y="3" width="1" height="1" fill="#FF88FF"/>
  <!-- Top arc -->
  <rect x="4" y="4" width="7" height="1" fill="#660099"/>
  <!-- Row 5: highlight -->
  <rect x="3" y="5" width="1" height="1" fill="#660099"/>
  <rect x="4" y="5" width="3" height="1" fill="#DD99FF"/>
  <rect x="7" y="5" width="4" height="1" fill="#AA44FF"/>
  <rect x="11" y="5" width="1" height="1" fill="#660099"/>
  <!-- Row 6 -->
  <rect x="3" y="6" width="1" height="1" fill="#660099"/>
  <rect x="4" y="6" width="2" height="1" fill="#DD99FF"/>
  <rect x="6" y="6" width="5" height="1" fill="#AA44FF"/>
  <rect x="11" y="6" width="1" height="1" fill="#660099"/>
  <!-- Row 7: eyes with psychic glow -->
  <rect x="3" y="7" width="1" height="1" fill="#660099"/>
  <rect x="4" y="7" width="1" height="1" fill="#AA44FF"/>
  <rect x="5" y="7" width="1" height="1" fill="#220044"/>
  <rect x="6" y="7" width="1" height="1" fill="#FFAAFF"/>
  <rect x="7" y="7" width="1" height="1" fill="#AA44FF"/>
  <rect x="8" y="7" width="1" height="1" fill="#FFAAFF"/>
  <rect x="9" y="7" width="1" height="1" fill="#220044"/>
  <rect x="10" y="7" width="1" height="1" fill="#AA44FF"/>
  <rect x="11" y="7" width="1" height="1" fill="#660099"/>
  <!-- Row 8: psychic swirl marks -->
  <rect x="3" y="8" width="1" height="1" fill="#660099"/>
  <rect x="4" y="8" width="1" height="1" fill="#AA44FF"/>
  <rect x="5" y="8" width="1" height="1" fill="#FFAAFF"/>
  <rect x="6" y="8" width="3" height="1" fill="#AA44FF"/>
  <rect x="9" y="8" width="1" height="1" fill="#FFAAFF"/>
  <rect x="10" y="8" width="1" height="1" fill="#AA44FF"/>
  <rect x="11" y="8" width="1" height="1" fill="#660099"/>
  <!-- Row 9 -->
  <rect x="3" y="9" width="1" height="1" fill="#660099"/>
  <rect x="4" y="9" width="7" height="1" fill="#AA44FF"/>
  <rect x="11" y="9" width="1" height="1" fill="#660099"/>
  <!-- Row 10 -->
  <rect x="4" y="10" width="1" height="1" fill="#660099"/>
  <rect x="5" y="10" width="5" height="1" fill="#AA44FF"/>
  <rect x="10" y="10" width="1" height="1" fill="#660099"/>
  <!-- Row 11 -->
  <rect x="5" y="11" width="5" height="1" fill="#660099"/>
  <!-- Psychic aura tendrils -->
  <rect x="3" y="9" width="1" height="3" fill="#AA44FF"/>
  <rect x="2" y="10" width="2" height="1" fill="#FFAAFF"/>
  <rect x="11" y="9" width="1" height="3" fill="#AA44FF"/>
  <rect x="11" y="10" width="2" height="1" fill="#FFAAFF"/>
  <!-- Bottom tail -->
  <rect x="6" y="12" width="3" height="1" fill="#660099"/>
  <rect x="7" y="13" width="1" height="1" fill="#AA44FF"/>
</svg>
