<svg xmlns="http://www.w3.org/2000/svg" viewBox="0 0 16 16" shape-rendering="crispEdges">
  <!-- Leaf ears -->
  <rect x="2" y="2" width="3" height="1" fill="#226622"/>
  <rect x="2" y="3" width="4" height="1" fill="#44BB44"/>
  <rect x="2" y="4" width="3" height="1" fill="#44BB44"/>
  <rect x="10" y="2" width="3" height="1" fill="#226622"/>
  <rect x="9" y="3" width="4" height="1" fill="#44BB44"/>
  <rect x="10" y="4" width="3" height="1" fill="#44BB44"/>
  <!-- Top arc -->
  <rect x="4" y="4" width="7" height="1" fill="#226622"/>
  <!-- Row 5: highlight -->
  <rect x="3" y="5" width="1" height="1" fill="#226622"/>
  <rect x="4" y="5" width="3" height="1" fill="#88EE88"/>
  <rect x="7" y="5" width="4" height="1" fill="#44BB44"/>
  <rect x="11" y="5" width="1" height="1" fill="#226622"/>
  <!-- Row 6 -->
  <rect x="3" y="6" width="1" height="1" fill="#226622"/>
  <rect x="4" y="6" width="2" height="1" fill="#88EE88"/>
  <rect x="6" y="6" width="5" height="1" fill="#44BB44"/>
  <rect x="11" y="6" width="1" height="1" fill="#226622"/>
  <!-- Row 7: eyes -->
  <rect x="3" y="7" width="1" height="1" fill="#226622"/>
  <rect x="4" y="7" width="1" height="1" fill="#44BB44"/>
  <rect x="5" y="7" width="1" height="1" fill="#111100"/>
  <rect x="6" y="7" width="3" height="1" fill="#44BB44"/>
  <rect x="9" y="7" width="1" height="1" fill="#111100"/>
  <rect x="10" y="7" width="1" height="1" fill="#44BB44"/>
  <rect x="11" y="7" width="1" height="1" fill="#226622"/>
  <!-- Row 8: leaf vein detail -->
  <rect x="3" y="8" width="1" height="1" fill="#226622"/>
  <rect x="4" y="8" width="3" height="1" fill="#44BB44"/>
  <rect x="7" y="8" width="1" height="1" fill="#FFCC44"/>
  <rect x="8" y="8" width="3" height="1" fill="#44BB44"/>
  <rect x="11" y="8" width="1" height="1" fill="#226622"/>
  <!-- Row 9 -->
  <rect x="3" y="9" width="1" height="1" fill="#226622"/>
  <rect x="4" y="9" width="7" height="1" fill="#44BB44"/>
  <rect x="11" y="9" width="1" height="1" fill="#226622"/>
  <!-- Row 10 -->
  <rect x="4" y="10" width="1" height="1" fill="#226622"/>
  <rect x="5" y="10" width="5" height="1" fill="#44BB44"/>
  <rect x="10" y="10" width="1" height="1" fill="#226622"/>
  <!-- Row 11 -->
  <rect x="5" y="11" width="5" height="1" fill="#226622"/>
  <!-- Vine tail -->
  <rect x="5" y="12" width="2" height="1" fill="#226622"/>
  <rect x="8" y="12" width="3" height="1" fill="#44BB44"/>
  <rect x="4" y="13" width="2" height="1" fill="#44BB44"/>
  <rect x="7" y="13" width="1" height="1" fill="#226622"/>
  <rect x="9" y="13" width="2" height="1" fill="#226622"/>
  <rect x="3" y="14" width="2" height="1" fill="#226622"/>
  <rect x="8" y="14" width="2" height="1" fill="#44BB44"/>
  <!-- Leaf tips on ears -->
  <rect x="1" y="2" width="1" height="1" fill="#FFCC44"/>
  <rect x="13" y="2" width="1" height="1" fill="#FFCC44"/>
</svg>
