<svg xmlns="http://www.w3.org/2000/svg" viewBox="0 0 16 16" shape-rendering="crispEdges">
  <!-- Ice crystal spikes on top -->
  <rect x="5" y="0" width="1" height="3" fill="#CCEEFF"/>
  <rect x="7" y="0" width="2" height="4" fill="#FFFFFF"/>
  <rect x="10" y="1" width="1" height="3" fill="#CCEEFF"/>
  <rect x="3" y="2" width="1" height="2" fill="#88CCFF"/>
  <!-- Top arc -->
  <rect x="4" y="4" width="7" height="1" fill="#4488CC"/>
  <!-- Row 5: icy highlight -->
  <rect x="3" y="5" width="1" height="1" fill="#4488CC"/>
  <rect x="4" y="5" width="4" height="1" fill="#FFFFFF"/>
  <rect x="8" y="5" width="3" height="1" fill="#88CCFF"/>
  <rect x="11" y="5" width="1" height="1" fill="#4488CC"/>
  <!-- Row 6 -->
  <rect x="3" y="6" width="1" height="1" fill="#4488CC"/>
  <rect x="4" y="6" width="3" height="1" fill="#FFFFFF"/>
  <rect x="7" y="6" width="4" height="1" fill="#88CCFF"/>
  <rect x="11" y="6" width="1" height="1" fill="#4488CC"/>
  <!-- Row 7: cold eyes -->
  <rect x="3" y="7" width="1" height="1" fill="#4488CC"/>
  <rect x="4" y="7" width="1" height="1" fill="#88CCFF"/>
  <rect x="5" y="7" width="1" height="1" fill="#001133"/>
  <rect x="6" y="7" width="3" height="1" fill="#88CCFF"/>
  <rect x="9" y="7" width="1" height="1" fill="#001133"/>
  <rect x="10" y="7" width="1" height="1" fill="#88CCFF"/>
  <rect x="11" y="7" width="1" height="1" fill="#4488CC"/>
  <!-- Row 8: frost pattern -->
  <rect x="3" y="8" width="1" height="1" fill="#4488CC"/>
  <rect x="4" y="8" width="1" height="1" fill="#88CCFF"/>
  <rect x="5" y="8" width="1" height="1" fill="#FFFFFF"/>
  <rect x="6" y="8" width="3" height="1" fill="#88CCFF"/>
  <rect x="9" y="8" width="1" height="1" fill="#FFFFFF"/>
  <rect x="10" y="8" width="1" height="1" fill="#88CCFF"/>
  <rect x="11" y="8" width="1" height="1" fill="#4488CC"/>
  <!-- Row 9 -->
  <rect x="3" y="9" width="1" height="1" fill="#4488CC"/>
  <rect x="4" y="9" width="7" height="1" fill="#88CCFF"/>
  <rect x="11" y="9" width="1" height="1" fill="#4488CC"/>
  <!-- Ice spikes on sides -->
  <rect x="2" y="8" width="1" height="2" fill="#CCEEFF"/>
  <rect x="12" y="8" width="1" height="2" fill="#CCEEFF"/>
  <rect x="1" y="9" width="1" height="1" fill="#88CCFF"/>
  <rect x="13" y="9" width="1" height="1" fill="#88CCFF"/>
  <!-- Row 10 -->
  <rect x="4" y="10" width="1" height="1" fill="#4488CC"/>
  <rect x="5" y="10" width="5" height="1" fill="#88CCFF"/>
  <rect x="10" y="10" width="1" height="1" fill="#4488CC"/>
  <!-- Row 11 -->
  <rect x="5" y="11" width="5" height="1" fill="#4488CC"/>
  <!-- Ice shard feet -->
  <rect x="4" y="12" width="2" height="1" fill="#CCEEFF"/>
  <rect x="9" y="12" width="2" height="1" fill="#CCEEFF"/>
  <rect x="3" y="13" width="2" height="1" fill="#88CCFF"/>
  <rect x="5" y="13" width="1" height="1" fill="#4488CC"/>
  <rect x="9" y="13" width="1" height="1" fill="#4488CC"/>
  <rect x="10" y="13" width="2" height="1" fill="#88CCFF"/>
</svg>
