<svg xmlns="http://www.w3.org/2000/svg" viewBox="0 0 16 16" shape-rendering="crispEdges">
  <!-- Potion bottle - glass with red liquid -->
  <rect x="5" y="1" width="6" height="1" fill="#8B7355"/>
  <rect x="4" y="2" width="8" height="1" fill="#8B7355"/>
  <rect x="3" y="3" width="10" height="1" fill="#AAAAAA"/>
  <rect x="3" y="4" width="1" height="1" fill="#AAAAAA"/>
  <rect x="12" y="4" width="1" height="1" fill="#AAAAAA"/>
  <rect x="3" y="5" width="1" height="1" fill="#FF3333"/>
  <rect x="4" y="5" width="8" height="1" fill="#FF3333"/>
  <rect x="12" y="5" width="1" height="1" fill="#AAAAAA"/>
  <rect x="3" y="6" width="1" height="1" fill="#FF3333"/>
  <rect x="4" y="6" width="8" height="1" fill="#FF3333"/>
  <rect x="12" y="6" width="1" height="1" fill="#AAAAAA"/>
  <rect x="3" y="7" width="1" height="1" fill="#FF3333"/>
  <rect x="4" y="7" width="8" height="1" fill="#FF1111"/>
  <rect x="12" y="7" width="1" height="1" fill="#AAAAAA"/>
  <rect x="3" y="8" width="1" height="1" fill="#FF1111"/>
  <rect x="4" y="8" width="8" height="1" fill="#FF1111"/>
  <rect x="12" y="8" width="1" height="1" fill="#AAAAAA"/>
  <rect x="4" y="9" width="8" height="1" fill="#AAAAAA"/>
</svg>
