<svg xmlns="http://www.w3.org/2000/svg" viewBox="0 0 16 16" shape-rendering="crispEdges">
  <!-- Spiky ears/crown -->
  <rect x="3" y="0" width="1" height="3" fill="#FFCC00"/>
  <rect x="5" y="1" width="1" height="3" fill="#FFCC00"/>
  <rect x="7" y="0" width="1" height="2" fill="#FFCC00"/>
  <rect x="9" y="1" width="1" height="2" fill="#FFCC00"/>
  <rect x="11" y="0" width="1" height="3" fill="#FFCC00"/>
  <!-- Head row 3 -->
  <rect x="3" y="3" width="9" height="1" fill="#AA8800"/>
  <!-- Row 4: highlight -->
  <rect x="3" y="4" width="1" height="1" fill="#AA8800"/>
  <rect x="4" y="4" width="3" height="1" fill="#FFEE66"/>
  <rect x="7" y="4" width="4" height="1" fill="#FFCC00"/>
  <rect x="11" y="4" width="1" height="1" fill="#AA8800"/>
  <!-- Row 5 -->
  <rect x="2" y="5" width="1" height="1" fill="#AA8800"/>
  <rect x="3" y="5" width="2" height="1" fill="#FFEE66"/>
  <rect x="5" y="5" width="6" height="1" fill="#FFCC00"/>
  <rect x="11" y="5" width="1" height="1" fill="#AA8800"/>
  <rect x="12" y="5" width="1" height="1" fill="#AA8800"/>
  <!-- Row 6: eyes -->
  <rect x="2" y="6" width="1" height="1" fill="#AA8800"/>
  <rect x="3" y="6" width="1" height="1" fill="#FFCC00"/>
  <rect x="4" y="6" width="1" height="1" fill="#221100"/>
  <rect x="5" y="6" width="3" height="1" fill="#FFCC00"/>
  <rect x="8" y="6" width="1" height="1" fill="#221100"/>
  <rect x="9" y="6" width="2" height="1" fill="#FFCC00"/>
  <rect x="11" y="6" width="1" height="1" fill="#AA8800"/>
  <rect x="12" y="6" width="1" height="1" fill="#FFCC00"/>
  <!-- Row 7: lightning bolt on body -->
  <rect x="2" y="7" width="1" height="1" fill="#AA8800"/>
  <rect x="3" y="7" width="3" height="1" fill="#FFCC00"/>
  <rect x="6" y="7" width="1" height="1" fill="#FF8800"/>
  <rect x="7" y="7" width="4" height="1" fill="#FFCC00"/>
  <rect x="11" y="7" width="1" height="1" fill="#AA8800"/>
  <rect x="12" y="7" width="1" height="1" fill="#FFCC00"/>
  <!-- Row 8: lightning bolt continues -->
  <rect x="2" y="8" width="1" height="1" fill="#AA8800"/>
  <rect x="3" y="8" width="2" height="1" fill="#FFCC00"/>
  <rect x="5" y="8" width="3" height="1" fill="#FF8800"/>
  <rect x="8" y="8" width="3" height="1" fill="#FFCC00"/>
  <rect x="11" y="8" width="2" height="1" fill="#AA8800"/>
  <!-- Row 9 -->
  <rect x="3" y="9" width="1" height="1" fill="#AA8800"/>
  <rect x="4" y="9" width="2" height="1" fill="#FFCC00"/>
  <rect x="6" y="9" width="1" height="1" fill="#FF8800"/>
  <rect x="7" y="9" width="3" height="1" fill="#FFCC00"/>
  <rect x="10" y="9" width="1" height="1" fill="#AA8800"/>
  <!-- Row 10 -->
  <rect x="3" y="10" width="1" height="1" fill="#AA8800"/>
  <rect x="4" y="10" width="6" height="1" fill="#FFCC00"/>
  <rect x="10" y="10" width="1" height="1" fill="#AA8800"/>
  <!-- Row 11 -->
  <rect x="4" y="11" width="1" height="1" fill="#AA8800"/>
  <rect x="5" y="11" width="4" height="1" fill="#FFCC00"/>
  <rect x="9" y="11" width="1" height="1" fill="#AA8800"/>
  <!-- Lightning tail -->
  <rect x="5" y="12" width="1" height="1" fill="#AA8800"/>
  <rect x="6" y="12" width="2" height="1" fill="#FFCC00"/>
  <rect x="8" y="12" width="1" height="1" fill="#AA8800"/>
  <rect x="4" y="13" width="1" height="1" fill="#FFCC00"/>
  <rect x="7" y="13" width="1" height="1" fill="#AA8800"/>
  <rect x="8" y="13" width="2" height="1" fill="#FFCC00"/>
  <rect x="3" y="14" width="2" height="1" fill="#FFCC00"/>
  <rect x="9" y="14" width="2" height="1" fill="#FFCC00"/>
</svg>
