<svg xmlns="http://www.w3.org/2000/svg" viewBox="0 0 16 16" width="100%" height="100%" shape-rendering="crispEdges">
  <!-- Ground -->
  <g fill="#5a8a2a">
    <rect x="0" y="10" width="16" height="6"/>
  </g>
  <g fill="#7ab030">
    <rect x="0" y="10" width="16" height="2"/>
  </g>
  <!-- Grass tufts -->
  <g fill="#90cc40">
    <rect x="0" y="9" width="2" height="1"/>
    <rect x="3" y="10" width="1" height="1"/>
    <rect x="6" y="9" width="2" height="1"/>
    <rect x="10" y="10" width="1" height="1"/>
    <rect x="13" y="9" width="2" height="1"/>
  </g>
  <!-- Large tree trunk -->
  <g fill="#6b3a1a">
    <rect x="7" y="7" width="2" height="4"/>
  </g>
  <!-- Tree canopy layers -->
  <g fill="#1a6b10">
    <rect x="5" y="4" width="6" height="4"/>
    <rect x="4" y="5" width="8" height="2"/>
  </g>
  <g fill="#2a8b18">
    <rect x="5" y="3" width="6" height="3"/>
    <rect x="4" y="4" width="8" height="2"/>
  </g>
  <g fill="#3caa28">
    <rect x="6" y="2" width="4" height="3"/>
    <rect x="5" y="3" width="6" height="2"/>
  </g>
  <!-- Canopy highlight -->
  <g fill="#5acc40">
    <rect x="6" y="2" width="2" height="1"/>
    <rect x="5" y="3" width="1" height="1"/>
    <rect x="9" y="3" width="1" height="1"/>
    <rect x="5" y="5" width="2" height="1"/>
  </g>
  <!-- Small tree right -->
  <g fill="#6b3a1a">
    <rect x="12" y="8" width="1" height="3"/>
  </g>
  <g fill="#1a6b10">
    <rect x="11" y="5" width="3" height="3"/>
  </g>
  <g fill="#3caa28">
    <rect x="11" y="4" width="3" height="2"/>
    <rect x="12" y="3" width="1" height="2"/>
  </g>
  <!-- Small tree left -->
  <g fill="#6b3a1a">
    <rect x="3" y="8" width="1" height="2"/>
  </g>
  <g fill="#1a6b10">
    <rect x="2" y="5" width="3" height="3"/>
  </g>
  <g fill="#3caa28">
    <rect x="2" y="4" width="3" height="2"/>
    <rect x="3" y="3" width="1" height="2"/>
  </g>
  <!-- Flowers -->
  <g fill="#ffdd44">
    <rect x="1" y="11" width="1" height="1"/>
    <rect x="8" y="10" width="1" height="1"/>
    <rect x="14" y="11" width="1" height="1"/>
  </g>
  <g fill="#ff88aa">
    <rect x="5" y="11" width="1" height="1"/>
    <rect x="11" y="11" width="1" height="1"/>
  </g>
  <!-- Sky -->
  <g fill="#a0d8ff">
    <rect x="0" y="0" width="16" height="3"/>
  </g>
</svg>
